<?xml version="1.0" encoding="UTF-8"?>
<svg version="1.1" xmlns="http://www.w3.org/2000/svg" width="500" height="470">
<path d="M0 0 C0.886875 0.37640625 1.77375 0.7528125 2.6875 1.140625 C7.99611631 3.68732607 11.95904135 6.45226054 16.015625 10.7421875 C17.99311273 12.25493339 17.99311273 12.25493339 20.73046875 11.921875 C25.46608326 10.58662407 29.75129488 8.49948606 34.16601562 6.3515625 C38.15256576 4.50404449 40.63264116 3.45056665 45 5 C45.33 6.65 45.66 8.3 46 10 C44.989375 10.825 43.97875 11.65 42.9375 12.5 C37.2431044 17.37597032 32.65296826 23.15084383 28 29 C28.79664063 29.53109375 29.59328125 30.0621875 30.4140625 30.609375 C35.609375 34.07291667 40.8046875 37.53645833 46 41 C45.67 42.32 45.34 43.64 45 45 C41.89315935 45.95139197 39.45494879 46.01111621 36.234375 45.66015625 C35.34492188 45.56669922 34.45546875 45.47324219 33.5390625 45.37695312 C32.61867188 45.27318359 31.69828125 45.16941406 30.75 45.0625 C29.81414062 44.96259766 28.87828125 44.86269531 27.9140625 44.75976562 C25.60862401 44.51275436 23.30408452 44.25928885 21 44 C15.64442408 56.38311895 15.46754891 67.37477545 15.875 80.6875 C16.66782774 109.94385368 13.06324728 135.97168036 -5 160 C-5.49242187 160.69609375 -5.98484375 161.3921875 -6.4921875 162.109375 C-20.20731004 181.23641076 -44.06571551 194.14992218 -67.07421875 198.59375 C-69.04158815 198.81612142 -71.02141091 198.92805131 -73 199 C-71.8932284 200.1067716 -70.78567489 201.21276553 -69.67578125 202.31640625 C-68.43381987 203.56415766 -67.20384957 204.8238694 -65.98046875 206.08984375 C-55.81898736 217.1376981 -55.81898736 217.1376981 -41.99609375 221.19921875 C-22.2115214 219.88368656 -0.8213031 211.31887001 13 197 C18.01219826 191.20017059 22.05269279 184.5517161 26 178 C26.36013184 177.42878418 26.72026367 176.85756836 27.09130859 176.26904297 C28.34334026 173.14266406 28.15412931 170.53975033 28.0546875 167.1796875 C28.02936708 165.82553157 28.00464726 164.4713643 27.98046875 163.1171875 C27.9311817 161.00418826 27.87553618 158.89179765 27.80810547 156.77929688 C27.54841795 148.08487682 27.84451812 140.83108209 32 133 C32.33 132.34 32.66 131.68 33 131 C33.66 131 34.32 131 35 131 C35.185625 130.34 35.37125 129.68 35.5625 129 C40.92445169 117.80983995 52.06015196 110.62127451 62.58203125 104.87109375 C64.6619656 103.73247826 66.72691254 102.56508627 68.76171875 101.34765625 C69.54160156 100.88230469 70.32148438 100.41695313 71.125 99.9375 C71.78757812 99.53402344 72.45015625 99.13054687 73.1328125 98.71484375 C75.47793952 97.81702315 76.63725495 98.31666007 79 99 C78.9301296 103.05325528 78.84171577 107.10568095 78.73754883 111.15820312 C78.70469956 112.53114244 78.67654933 113.90420387 78.65356445 115.27734375 C78.37158628 131.69207338 75.41745035 143.29783719 65 156 C64.39027344 156.78117188 63.78054688 157.56234375 63.15234375 158.3671875 C58.22215537 164.38060002 53.00942823 167.73356673 46 171 C45.13117188 171.41378906 44.26234375 171.82757813 43.3671875 172.25390625 C37.415723 175 37.415723 175 35 175 C34.60941406 176.31291016 34.60941406 176.31291016 34.2109375 177.65234375 C33.00470037 180.98700574 31.55606044 183.59844872 29.625 186.5625 C29.03976562 187.47128906 28.45453125 188.38007813 27.8515625 189.31640625 C26.01249746 191.9818866 24.02733572 194.47661405 22 197 C21.67 197.66 21.34 198.32 21 199 C28.05724202 196.05164111 33.99598574 192.88414064 39.625 187.625 C49.28373312 179.07012209 60.64075244 175.57330922 73.375 176.0625 C86.02813125 177.40540308 99.87171208 183.87171208 109 193 C109.04063832 194.66617115 109.042721 196.33388095 109 198 C92.76625695 207.56519648 75.51107986 216.88804612 55.98779297 212.55322266 C51.87717491 211.32966076 47.9389585 209.68455459 44 208 C35.10003831 204.33774868 28.43614055 204.43599869 19.4375 208.0625 C13.62153903 210.64319161 7.86814916 213.37762932 2.13842773 216.14477539 C-2.49608689 218.36729947 -7.16467132 220.25451139 -12 222 C-11.27296875 222.18175781 -10.5459375 222.36351562 -9.796875 222.55078125 C-7.66757512 223.08310622 -5.54010167 223.62276667 -3.4140625 224.16796875 C-1.2965319 224.68402598 0.83343652 225.15421857 2.9765625 225.55078125 C14.0290168 227.74041842 23.31064001 233.86508831 31 242 C30.67 242.99 30.34 243.98 30 245 C26.61630062 243.98489019 23.53711248 242.79655323 20.4375 241.125 C3.58639214 232.55555615 -14.60663549 232.67520546 -33 233 C-33.33 234.32 -33.66 235.64 -34 237 C-36.18129118 236.53258046 -37.90590901 236.05501318 -39.84228516 234.92285156 C-42.53539643 233.77101171 -43.9220743 234.0349594 -46.7734375 234.609375 C-47.6809375 234.78726563 -48.5884375 234.96515625 -49.5234375 235.1484375 C-50.93496094 235.44621094 -50.93496094 235.44621094 -52.375 235.75 C-53.30828125 235.93304688 -54.2415625 236.11609375 -55.203125 236.3046875 C-59.92476508 237.25436582 -64.46884853 238.3330212 -69 240 C-69 242.64 -69 245.28 -69 248 C-70.65 247.67 -72.3 247.34 -74 247 C-74.33 245.68 -74.66 244.36 -75 243 C-82.89193369 245.64923569 -90.11435128 248.95964313 -97.375 253 C-98.49720947 253.62237549 -98.49720947 253.62237549 -99.64208984 254.25732422 C-103.21015937 256.27840967 -106.60671477 258.38540244 -109.9140625 260.8125 C-113 263 -113 263 -115 263 C-115 263.66 -115 264.32 -115 265 C-133.12802768 275.32352941 -133.12802768 275.32352941 -141 279 C-141.60070312 279.31839844 -142.20140625 279.63679688 -142.8203125 279.96484375 C-147.52431622 282.17430004 -152.24207104 282.30864059 -157.375 282.375 C-158.08994629 282.38893799 -158.80489258 282.40287598 -159.54150391 282.41723633 C-161.5859375 282.3984375 -161.5859375 282.3984375 -165 282 C-167 279 -167 279 -166.87109375 276.9375 C-165.71196661 274.35935175 -164.66573839 274.02482495 -162.0625 273 C-161.24007812 272.66355469 -160.41765625 272.32710938 -159.5703125 271.98046875 C-157.96501324 271.36811295 -156.3561383 270.76495706 -154.7421875 270.17578125 C-148.84583303 267.96714678 -143.46270982 265.11068424 -138.01391602 261.98608398 C-122.62373366 253.17229986 -106.96834576 244.72287268 -91 237 C-91.46148437 236.51273438 -91.92296875 236.02546875 -92.3984375 235.5234375 C-98.11401206 229.31085646 -102.97911817 222.66020399 -107.77880859 215.73730469 C-108.6422749 214.5089108 -109.52187318 213.2917822 -110.41259766 212.08300781 C-114 207.20474631 -114 207.20474631 -114 205 C-116.83419612 205.28463081 -119.66714854 205.57750619 -122.5 205.875 C-123.29148437 205.95363281 -124.08296875 206.03226563 -124.8984375 206.11328125 C-139.99422133 207.72184838 -151.62595695 213.04065779 -161.3984375 224.9140625 C-163.53728269 227.65455072 -165.61265005 230.44083581 -167.68212891 233.23388672 C-173.73940776 241.35140343 -180.00989737 249.2719088 -186.90234375 256.69921875 C-188.27348336 258.20313166 -189.60207127 259.74726933 -190.87890625 261.33203125 C-199.0366045 271.32904351 -211.44235999 278.65197733 -224.18359375 280.71484375 C-229.50749614 281.25387964 -234.02260957 280.68603341 -239.0625 278.9375 C-241.49913448 276.50086552 -241.55965472 274.6129869 -241.56640625 271.23046875 C-240.13839377 265.6070541 -235.69198819 261.41591247 -231.8125 257.3125 C-227.37160219 252.56230812 -223.20347168 247.65851835 -219.12109375 242.59375 C-216.47064816 239.35268947 -213.70303772 236.23235972 -210.90234375 233.12109375 C-209.05435793 231.06060853 -207.244332 228.97156898 -205.4375 226.875 C-202.67397376 223.7041513 -199.76201178 220.7421152 -196.765625 217.79296875 C-192.51269845 213.47417829 -188.59233533 208.87994949 -185 204 C-185.99 203.01 -185.99 203.01 -187 202 C-186.70352303 197.73237625 -184.91032947 194.97061902 -182.53515625 191.4921875 C-181.82278809 190.43298096 -181.11041992 189.37377441 -180.37646484 188.2824707 C-179.99882996 187.72693512 -179.62119507 187.17139954 -179.2321167 186.59902954 C-173.66901779 178.39895266 -168.30171883 170.19496533 -163.875 161.3125 C-153.33908356 140.31828818 -139.38454833 121.44568313 -123.31298828 104.41015625 C-121.57577705 102.54438234 -119.90925319 100.62266545 -118.25 98.6875 C-112.83466373 92.48188738 -107.20672627 87.03599576 -100.625 82.0625 C-86.01105457 71.00295619 -74.89810316 58.69430949 -69 41 C-68.34 41 -67.68 41 -67 41 C-66.79375 39.7625 -66.5875 38.525 -66.375 37.25 C-63.08678952 22.8045512 -53.41158012 10.83588238 -41 3 C-28.28285055 -4.43895513 -13.61401594 -6.04213348 0 0 Z M-47.92578125 18.11328125 C-53.37665347 25.304565 -56.65893698 33.68576872 -60 42 C-60.25587891 42.63534668 -60.51175781 43.27069336 -60.77539062 43.92529297 C-63.79374123 51.33042242 -63.79374123 51.33042242 -66 59 C-66.66 59 -67.32 59 -68 59 C-69.27876643 60.68548895 -69.27876643 60.68548895 -70.5625 62.875 C-78.56550139 75.21697804 -89.96421854 85.64864144 -102 94 C-103.6857124 95.64740076 -105.34856379 97.31824081 -107 99 C-108.16094033 100.14117748 -109.32383134 101.28037264 -110.48828125 102.41796875 C-117.47564318 109.28542275 -124.16208005 116.10647443 -130 124 C-130.84442827 125.10464381 -131.68952916 126.20877364 -132.53515625 127.3125 C-142.89754835 140.98007419 -151.49055385 155.5284426 -159.20898438 170.83251953 C-161.79011586 175.90736976 -164.58693792 180.44149801 -168 185 C-170.3022434 188.2619398 -170.3022434 188.2619398 -171 192 C-151.4993487 189.40950758 -133.19186052 166.22806823 -122 152 C-121.25621094 151.11054688 -120.51242188 150.22109375 -119.74609375 149.3046875 C-117.79870543 147.21621593 -117.79870543 147.21621593 -118 145 C-116.68 145 -115.36 145 -114 145 C-120.00450812 157.66604448 -126.89799164 168.13184677 -136.546875 178.3359375 C-138.52755555 180.48693135 -140.30877883 182.62101556 -142 185 C-126.5407132 182.24200517 -112.08662072 163.66677229 -103 152 C-101.8832348 150.70120699 -100.75920662 149.40858993 -99.625 148.125 C-97.88058223 146.13137969 -96.69923375 144.46787509 -95.375 142.125 C-94 140 -94 140 -91.9140625 139.3671875 C-91.28242188 139.24601563 -90.65078125 139.12484375 -90 139 C-91.82391886 143.82174293 -93.61790231 148.55363498 -96.25 153 C-98.16795701 155.70907447 -98.16795701 155.70907447 -98 158 C-98.66 158 -99.32 158 -100 158 C-101.10334938 159.45522837 -102.1323309 160.96713422 -103.125 162.5 C-106.58079404 167.60729982 -110.49464638 171.81060625 -115 176 C-111.91697851 177.37289311 -111.91697851 177.37289311 -108.5625 175.75 C-93.08711737 167.44544485 -80.53592181 150.48210871 -73 135 C-73 134.34 -73 133.68 -73 133 C-71.68 133 -70.36 133 -69 133 C-70.56465592 139.69113019 -72.56192152 145.64806564 -75.81640625 151.7109375 C-77.04653388 154.08999622 -78.04174486 156.50058797 -79 159 C-58.47568625 147.91634899 -45.5884422 129.94144453 -38.5078125 108.02734375 C-37.2337485 102.94088826 -36.87997065 98.08686708 -36.90234375 92.8515625 C-36.9037587 92.19417084 -36.90517365 91.53677917 -36.90663147 90.85946655 C-36.91218238 88.78126269 -36.92472535 86.70317073 -36.9375 84.625 C-36.94252136 83.20703282 -36.94708315 81.78906393 -36.95117188 80.37109375 C-36.96213563 76.91402678 -36.97936579 73.45702433 -37 70 C-33.12646484 71.78320312 -33.12646484 71.78320312 -31.98828125 73.734375 C-31.76527344 74.39953125 -31.54226563 75.0646875 -31.3125 75.75 C-30.96638672 76.73226562 -30.96638672 76.73226562 -30.61328125 77.734375 C-25.76578753 95.6423136 -30.36720115 112.29524316 -39 128 C-39.61875 129.25103516 -39.61875 129.25103516 -40.25 130.52734375 C-43.49230374 136.93314524 -48.04047517 141.85854682 -53 147 C-53.79792969 147.83789062 -54.59585938 148.67578125 -55.41796875 149.5390625 C-80.50376118 175.30284932 -113.17796366 185.48445538 -146.92480469 195.34448242 C-148.88043444 195.96223135 -150.78778094 196.72723292 -152.6875 197.5 C-157.74587128 199.51090989 -163.15848938 200.14072871 -168.51171875 200.9609375 C-172.69084188 202.20578269 -174.17138368 203.72524419 -177 207 C-177.92842742 207.98542592 -178.86088834 208.96706371 -179.796875 209.9453125 C-180.78317724 211.00341515 -181.76748547 212.0633793 -182.75 213.125 C-183.27368164 213.69049561 -183.79736328 214.25599121 -184.33691406 214.83862305 C-188.38624213 219.24927767 -192.16539952 223.83890013 -195.9140625 228.5078125 C-198.47669975 231.56954015 -201.24940376 234.33603436 -204.109375 237.1171875 C-206.57605635 239.57367595 -208.83181433 242.17939924 -211.09765625 244.8203125 C-213.28443478 247.32590269 -215.54903875 249.75101285 -217.8125 252.1875 C-223.27464861 258.16146284 -228.15769664 264.51955572 -233 271 C-228.74957801 273.83361466 -226.10708941 272.81216845 -221.2421875 271.8671875 C-201.95231638 266.70772799 -188.64917792 248.6862881 -177.73608398 233.20727539 C-169.3983081 221.42933609 -160.98670734 210.70919922 -148 204 C-147.38350586 203.66814697 -146.76701172 203.33629395 -146.13183594 202.99438477 C-139.59715524 199.7427026 -133.20698852 198.99311363 -126 198.3125 C-123.7496432 198.08289764 -121.49961801 197.85001275 -119.25 197.61328125 C-118.26515625 197.51829346 -117.2803125 197.42330566 -116.265625 197.32543945 C-114.03643937 197.23623416 -114.03643937 197.23623416 -113 196 C-110.77850054 195.67559236 -108.54839157 195.40992262 -106.31640625 195.16796875 C-104.90806325 195.01036881 -103.49978095 194.85222575 -102.09155273 194.69360352 C-101.35154022 194.61135529 -100.61152771 194.52910706 -99.84909058 194.44436646 C-87.03917632 193.00535184 -74.46089011 191.39957347 -62 188 C-61.32807617 187.82388184 -60.65615234 187.64776367 -59.96386719 187.46630859 C-37.37052657 181.46812384 -19.12156185 169.2627712 -7 149 C2.24074035 132.3054611 7.03087584 116.5217383 7.24609375 97.4453125 C7.27902717 95.42838099 7.3122389 93.41145402 7.34570312 91.39453125 C7.39301337 88.25930804 7.43751123 85.12410385 7.47680664 81.98876953 C7.51687632 78.93243647 7.56831762 75.87644908 7.62109375 72.8203125 C7.6295079 71.89912628 7.63792206 70.97794006 7.64659119 70.02883911 C7.81187947 61.17868905 8.93372207 52.60297172 12.5 44.4375 C12.9228125 43.44621094 13.345625 42.45492187 13.78125 41.43359375 C15 39 15 39 17 37 C19.32275177 36.59952556 21.65739357 36.2602896 24 36 C22.03617993 34.49440461 20.21736634 33.10868317 18 32 C18.34013015 26.55791766 21.70296528 23.06331802 25 19 C23.9171875 19.2165625 23.9171875 19.2165625 22.8125 19.4375 C21.884375 19.623125 20.95625 19.80875 20 20 C19.20335937 20.26167969 18.40671875 20.52335937 17.5859375 20.79296875 C15 21 15 21 12.89453125 19.3046875 C12.20746094 18.50289062 11.52039063 17.70109375 10.8125 16.875 C3.44057579 8.98789972 -5.84031612 5.06259843 -16.625 4.625 C-28.65253392 4.8805851 -39.75402024 9.1458924 -47.92578125 18.11328125 Z M48.66796875 124.2109375 C40.24934102 133.01166986 35.77671743 142.95998026 35.75 155.25 C35.81301453 157.16744223 35.88879185 159.0847485 36 161 C39.02130099 157.42092037 41.32633231 153.79760519 43.5625 149.6875 C46.74018807 143.98375887 50.19882765 138.52046756 53.875 133.125 C54.35138916 132.41690186 54.82777832 131.70880371 55.31860352 130.97924805 C56.49133666 129.2806256 57.73922395 127.63433932 59 126 C59.66 126 60.32 126 61 126 C60.40008605 130.31978004 58.83927717 133.44289668 56.69140625 137.21875 C56.20123268 138.08929016 56.20123268 138.08929016 55.70115662 138.97741699 C54.66136724 140.82200406 53.61256272 142.66124494 52.5625 144.5 C51.51734147 146.33945972 50.47422741 148.18001668 49.43455505 150.02258301 C48.49000101 151.69519844 47.53923376 153.36430067 46.58813477 155.03320312 C45.18755827 157.64962212 44.03286521 160.22170502 43 163 C47.37391391 161.55008379 50.5866751 159.18805576 54.0625 156.25 C54.57876953 155.83234375 55.09503906 155.4146875 55.62695312 154.984375 C60.45931147 150.94612395 63.61981991 146.2991519 66.125 140.5625 C66.43695313 139.86253906 66.74890625 139.16257813 67.0703125 138.44140625 C69.55580892 131.91436732 70.37269124 125.97470868 70.625 119.0625 C70.66367187 118.18787109 70.70234375 117.31324219 70.7421875 116.41210938 C70.8356107 114.27505369 70.91885398 112.13755706 71 110 C62.72660511 110 54.28635942 118.71110173 48.66796875 124.2109375 Z M47 191 C47 191.33 47 191.66 47 192 C56.9 192 66.8 192 77 192 C77 192.99 77 193.98 77 195 C71.06647184 197.39423066 64.92743455 197.8975105 58.625 198.625 C57.50738281 198.7590625 56.38976562 198.893125 55.23828125 199.03125 C52.49280212 199.35976887 49.74677171 199.68250195 47 200 C53.26787493 204.8885448 61.28172677 206.68314791 69.19921875 206.41796875 C78.70203064 204.99983643 87.93187732 201.13823531 96 196 C96 195.01 96 194.02 96 193 C93.52234379 191.12914045 93.52234379 191.12914045 90.375 189.4375 C89.33085937 188.83808594 88.28671875 188.23867187 87.2109375 187.62109375 C81.45761178 184.71643417 76.55066847 183.63582106 70.125 183.6875 C69.41609619 183.69168945 68.70719238 183.69587891 67.97680664 183.70019531 C59.67559266 183.87980496 53.98226721 186.78154689 47 191 Z M-95.125 201.9375 C-95.94871094 202.02451172 -96.77242187 202.11152344 -97.62109375 202.20117188 C-98.40871094 202.28818359 -99.19632813 202.37519531 -100.0078125 202.46484375 C-100.72598145 202.543396 -101.44415039 202.62194824 -102.18408203 202.70288086 C-104.0934868 202.92302679 -104.0934868 202.92302679 -106 204 C-104.53849765 208.39262649 -102.12775985 211.63665141 -99.25 215.1875 C-95.44992548 219.9695855 -92.16588939 224.78253307 -89.25390625 230.171875 C-88.05239737 232.3177961 -88.05239737 232.3177961 -85 233 C-78.88257983 233.78094726 -74.65209937 231.78149619 -69.08984375 229.3125 C-64.82610893 227.50135601 -60.46435917 226.2148588 -56 225 C-59.76709302 221.11918342 -63.73602321 217.60258815 -67.875 214.125 C-71.80463981 210.80927065 -75.60072565 207.50411833 -79.125 203.75 C-83.65433187 199.4175956 -89.25635133 201.28388273 -95.125 201.9375 Z " fill="#2F6F74" transform="translate(312,10)"/>
<path d="M0 0 C4.55315922 -0.09958121 9.10567152 -0.17179985 13.65966797 -0.21972656 C15.20567887 -0.23972503 16.75161527 -0.26693331 18.29736328 -0.30175781 C34.4413886 -0.65611344 34.4413886 -0.65611344 41 4 C43.85303972 8.19564664 44.24197512 11.23669332 43.5 16.125 C42.39542659 20.6813653 40.60175116 22.93851151 37 26 C36.28953511 27.31051969 35.61386183 28.64154651 35 30 C36.89309366 32.54371744 38.78997569 35.08458644 40.6875 37.625 C41.21794922 38.33785156 41.74839844 39.05070312 42.29492188 39.78515625 C49.77390291 50.54775185 49.77390291 50.54775185 60.875 56.75 C61.57625 56.8325 62.2775 56.915 63 57 C63 57.66 63 58.32 63 59 C47.58419573 60.49668003 47.58419573 60.49668003 42.1875 57.37109375 C39.20486618 54.13076915 36.99529986 50.61038112 34.68603516 46.87402344 C33.73326591 45.33501045 32.77590341 43.79883254 31.81420898 42.26538086 C30.86925003 40.73693581 29.95215678 39.19083729 29.06665039 37.62719727 C28.63989014 36.91362061 28.21312988 36.20004395 27.7734375 35.46484375 C27.40653809 34.821521 27.03963867 34.17819824 26.66162109 33.51538086 C24.50027231 31.25887272 24.50027231 31.25887272 18 31 C18.33 39.25 18.66 47.5 19 56 C20.98 56.33 22.96 56.66 25 57 C25 57.66 25 58.32 25 59 C16.75 59 8.5 59 0 59 C0.33 58.34 0.66 57.68 1 57 C2.66666667 56.66666667 4.33333333 56.33333333 6 56 C7.24177521 53.51644959 7.12036681 51.86892378 7.11352539 49.09130859 C7.11344986 48.07040131 7.11337433 47.04949402 7.11329651 45.99765015 C7.10813522 44.89240997 7.10297394 43.7871698 7.09765625 42.6484375 C7.09553383 40.95468491 7.09553383 40.95468491 7.09336853 39.22671509 C7.08775744 35.60945012 7.07520303 31.99224636 7.0625 28.375 C7.05748643 25.92708423 7.05292328 23.47916748 7.04882812 21.03125 C7.0377844 15.02081234 7.02103544 9.01041054 7 3 C4.69 2.67 2.38 2.34 0 2 C0 1.34 0 0.68 0 0 Z M18 4 C18 11.92 18 19.84 18 28 C26.31762636 28.79499841 26.31762636 28.79499841 30 26.125 C33.3711963 22.54310393 33.21595899 20.03995618 33.3125 15.1875 C33.36857422 13.35251953 33.36857422 13.35251953 33.42578125 11.48046875 C32.92685777 7.40211258 31.93970075 5.81960641 29 3 C24.13881161 1.69789597 22.58414454 1.70792773 18 4 Z " fill="#2B7777" transform="translate(370,322)"/>
<path d="M0 0 C4.49823356 -0.10002059 8.99585192 -0.17200172 13.49487305 -0.21972656 C15.02037859 -0.23965311 16.54580968 -0.26680485 18.07104492 -0.30175781 C30.0995309 -0.57019793 40.57606751 0.44039138 50.27734375 8.2890625 C56.51045151 14.47976816 58.14625009 20.60375454 58.3125 29.1875 C58.32300355 38.87994653 55.49933436 45.21886421 48.91796875 52.27734375 C41.8135689 58.65828129 32.50098224 60.35084606 23.21875 59.9765625 C22.51979614 59.95153656 21.82084229 59.92651062 21.10070801 59.90072632 C18.89990424 59.81950163 16.70013434 59.72254766 14.5 59.625 C12.99483193 59.56666015 11.48962321 59.50935929 9.984375 59.453125 C6.3223701 59.3140726 2.66111671 59.16092122 -1 59 C-0.67 58.34 -0.34 57.68 0 57 C1.66666667 56.66666667 3.33333333 56.33333333 5 56 C6.24177521 53.51644959 6.12036681 51.86892378 6.11352539 49.09130859 C6.11344986 48.07040131 6.11337433 47.04949402 6.11329651 45.99765015 C6.10813522 44.89240997 6.10297394 43.7871698 6.09765625 42.6484375 C6.09553383 40.95468491 6.09553383 40.95468491 6.09336853 39.22671509 C6.08775744 35.60945012 6.07520303 31.99224636 6.0625 28.375 C6.05748643 25.92708423 6.05292328 23.47916748 6.04882812 21.03125 C6.0377844 15.02081234 6.02103544 9.01041054 6 3 C3.03 2.505 3.03 2.505 0 2 C0 1.34 0 0.68 0 0 Z M17 5 C16.68050286 7.16026214 16.68050286 7.16026214 16.70947266 9.67749023 C16.69671295 10.64867294 16.68395325 11.61985565 16.67080688 12.62046814 C16.66858124 13.67254959 16.66635559 14.72463104 16.6640625 15.80859375 C16.6574057 16.88625504 16.6507489 17.96391632 16.64389038 19.07423401 C16.63375171 21.35651946 16.62907373 23.63883463 16.62939453 25.92114258 C16.62502196 29.41992856 16.58871539 32.91745309 16.55078125 36.41601562 C16.54491336 38.630204 16.54094378 40.8443984 16.5390625 43.05859375 C16.52469147 44.10865097 16.51032043 45.15870819 16.49551392 46.24058533 C16.50166718 47.2149202 16.50782043 48.18925507 16.51416016 49.19311523 C16.51131012 50.05090073 16.50846008 50.90868622 16.50552368 51.79246521 C16.81958839 54.16290647 16.81958839 54.16290647 18.8868103 55.77333069 C22.74338483 58.01200411 26.68679292 57.57725629 31 57 C38.17602607 54.79868871 42.16953994 50.33405225 45.75 43.8125 C49.26414653 34.67571902 48.67797207 24.15494565 44.80859375 15.26171875 C41.72617723 9.59242406 38.32256151 5.00570792 32 3 C23.87596026 1.82400657 23.87596026 1.82400657 17 5 Z " fill="#2B7777" transform="translate(440,322)"/>
<path d="M0 0 C4.26832981 -0.09965569 8.53602469 -0.17183391 12.80517578 -0.21972656 C14.25418917 -0.23971295 15.70312325 -0.26691197 17.15185547 -0.30175781 C32.29970646 -0.65670401 32.29970646 -0.65670401 39 4 C41.83463816 8.25195724 41.64552117 12.0069326 41 17 C39.0940817 20.61467263 36.88141413 23.16812308 34 26 C34.79664063 26.34611328 34.79664063 26.34611328 35.609375 26.69921875 C40.93538125 29.1581231 44.30322967 31.60645934 47 37 C47.81200034 43.24080263 47.31010254 48.11716309 43.62890625 53.30859375 C39.97386644 57.1038749 35.10577702 59.00785408 30 60 C27.68199337 60.01570035 25.36325103 59.96724262 23.046875 59.87890625 C22.38665344 59.85529526 21.72643188 59.83168427 21.04620361 59.80735779 C18.947231 59.7310719 16.84866051 59.64689847 14.75 59.5625 C13.32293603 59.5092441 11.89585272 59.45650396 10.46875 59.40429688 C6.97892267 59.27550501 3.48941202 59.13963981 0 59 C0.33 58.34 0.66 57.68 1 57 C2.66666667 56.66666667 4.33333333 56.33333333 6 56 C7.24177521 53.51644959 7.12036681 51.86892378 7.11352539 49.09130859 C7.11344986 48.07040131 7.11337433 47.04949402 7.11329651 45.99765015 C7.10813522 44.89240997 7.10297394 43.7871698 7.09765625 42.6484375 C7.09553383 40.95468491 7.09553383 40.95468491 7.09336853 39.22671509 C7.08775744 35.60945012 7.07520303 31.99224636 7.0625 28.375 C7.05748643 25.92708423 7.05292328 23.47916748 7.04882812 21.03125 C7.0377844 15.02081234 7.02103544 9.01041054 7 3 C4.69 2.67 2.38 2.34 0 2 C0 1.34 0 0.68 0 0 Z M18 4 C18 11.26 18 18.52 18 26 C26.1746048 25.24532385 26.1746048 25.24532385 31 20 C32.52744622 15.41766133 32.77447996 11.58416356 30.625 7.1875 C28.20861124 3.93116772 28.20861124 3.93116772 24.625 2.25 C21.65108403 1.7327922 21.65108403 1.7327922 18 4 Z M18 29 C17.9132438 33.29154022 17.8596911 37.58285668 17.8125 41.875 C17.78736328 43.09832031 17.76222656 44.32164062 17.73632812 45.58203125 C17.72666016 46.74863281 17.71699219 47.91523438 17.70703125 49.1171875 C17.6913208 50.19597168 17.67561035 51.27475586 17.65942383 52.38623047 C17.77181396 53.24877441 17.8842041 54.11131836 18 55 C21.74183875 57.49455917 23.56243036 57.37606522 28 57 C31.83710223 55.67177231 33.54519837 54.65188234 35.875 51.3125 C37.81614768 45.59689849 37.77078428 41.1506901 35.375 35.6875 C33.22859548 31.88081045 31.27550972 30.29071992 27 29 C25.43227336 28.93321007 23.8619512 28.91465767 22.29296875 28.9375 C21.48754639 28.94652344 20.68212402 28.95554687 19.85229492 28.96484375 C18.93540894 28.98224609 18.93540894 28.98224609 18 29 Z " fill="#2B7777" transform="translate(275,322)"/>
<path d="M0 0 C6.63360966 5.3386022 10.20822733 11.36362729 11.15625 19.9140625 C11.39900294 30.17037425 10.08452949 38.10720846 3.07421875 46.1796875 C1.37961545 47.74573469 -0.30772912 49.00760925 -2.25 50.25 C-2.84425781 50.63671875 -3.43851563 51.0234375 -4.05078125 51.421875 C-12.18724014 56.07128008 -21.58684119 57.14952217 -30.65234375 55.0625 C-39.13944237 52.4078887 -44.72781719 47.94628945 -49.25 40.25 C-53.19474487 31.43398655 -53.56896691 21.91444879 -50.47265625 12.76953125 C-46.47652305 4.53468808 -40.15270026 -0.49026495 -31.828125 -3.91015625 C-20.79504076 -7.50426702 -9.59095772 -6.70470689 0 0 Z M-36.0625 2.875 C-41.58168985 10.50117786 -42.06190124 19.10776964 -41.25 28.25 C-39.50338899 37.86313037 -35.20440278 45.54358061 -27.25 51.25 C-21.4823764 53.1725412 -15.37025209 53.27086212 -9.875 50.625 C-2.39585141 43.85815127 0.30660996 37.67915552 1 27.625 C0.85199039 19.04044276 -1.45643678 9.76775863 -7.25 3.25 C-15.81354679 -4.39602392 -27.58524928 -5.03710068 -36.0625 2.875 Z " fill="#2B7777" transform="translate(105.25,326.75)"/>
<path d="M0 0 C14.88374632 -1.91572972 14.88374632 -1.91572972 19.78710938 1.09863281 C23.02343153 4.0580833 25.44509378 7.61789928 27.84130859 11.26904297 C29.52088142 13.77813933 31.43816625 16.06126888 33.375 18.375 C34.08527344 19.24898438 34.79554688 20.12296875 35.52734375 21.0234375 C39.16378581 25.40095543 42.90605156 29.68517401 46.65966797 33.96240234 C47.46041748 34.87820068 47.46041748 34.87820068 48.27734375 35.8125 C48.75421631 36.35519531 49.23108887 36.89789063 49.72241211 37.45703125 C51 39 51 39 53 42 C53.07424001 37.08873797 53.12864411 32.17780366 53.16479492 27.26611328 C53.17986754 25.59580799 53.2003292 23.92554219 53.22631836 22.25537109 C53.26276973 19.85243987 53.27974131 17.45003256 53.29296875 15.046875 C53.30845261 14.30193787 53.32393646 13.55700073 53.33988953 12.78948975 C53.34091517 9.61912578 53.2013968 7.36931984 51.66918945 4.55957031 C49.97608546 2.76058015 49.97608546 2.76058015 47 2 C47 1.34 47 0.68 47 0 C53.27 0 59.54 0 66 0 C66 0.66 66 1.32 66 2 C65.030625 2.45375 64.06125 2.9075 63.0625 3.375 C59.92920418 4.65786221 59.92920418 4.65786221 59 7 C58.88082832 8.72527121 58.82282674 10.45492898 58.79467773 12.18408203 C58.77473251 13.26505157 58.75478729 14.34602112 58.73423767 15.45974731 C58.70916893 17.21603958 58.70916893 17.21603958 58.68359375 19.0078125 C58.66281265 20.20356903 58.64203156 21.39932556 58.62062073 22.63131714 C58.55507711 26.46248464 58.49621782 30.29372238 58.4375 34.125 C58.39431937 36.71745527 58.35070523 39.30990336 58.30664062 41.90234375 C58.19939081 48.26815427 58.0976334 54.63403513 58 61 C53.74473913 60.16936686 52.46764655 58.51080508 49.8125 55.0625 C46.81338533 51.25838565 43.77324566 47.57133458 40.5 44 C37.40444804 40.60401318 34.44848793 37.13828469 31.5625 33.5625 C27.60395178 28.66475317 23.44683829 24.02603683 19.1640625 19.41015625 C17.30555455 17.34030173 15.64933642 15.23501313 14 13 C13.95059501 18.64166991 13.91427807 24.28321413 13.89013672 29.92504883 C13.88007361 31.84466749 13.86642184 33.76427081 13.84912109 35.68383789 C13.82488636 38.44160752 13.81352008 41.19917464 13.8046875 43.95703125 C13.79436493 44.81649857 13.78404236 45.67596588 13.77340698 46.56147766 C13.77318039 47.76238289 13.77318039 47.76238289 13.77294922 48.98754883 C13.768508 49.6914827 13.76406677 50.39541656 13.75949097 51.12068176 C13.90112227 53.3333238 13.90112227 53.3333238 16 56 C18.05925139 56.72382467 18.05925139 56.72382467 20 57 C20 57.66 20 58.32 20 59 C13.73 59 7.46 59 1 59 C1 58.34 1 57.68 1 57 C3.97 56.505 3.97 56.505 7 56 C7.95987611 53.12037166 8.12153814 51.33372559 8.11352539 48.3449707 C8.11341209 46.93384758 8.11341209 46.93384758 8.11329651 45.49421692 C8.10813522 44.48163315 8.10297394 43.46904938 8.09765625 42.42578125 C8.0962413 41.38681198 8.09482635 40.34784271 8.09336853 39.27738953 C8.08776656 35.95573052 8.07521372 32.63413867 8.0625 29.3125 C8.05748525 27.06184993 8.0529223 24.81119881 8.04882812 22.56054688 C8.03779648 17.04033867 8.02053051 11.52018072 8 6 C5.36 4.68 2.72 3.36 0 2 C0 1.34 0 0.68 0 0 Z " fill="#2B7777" transform="translate(128,322)"/>
<path d="M0 0 C1.99616554 1.99616554 1.40983427 5.81701963 1.5625 8.5625 C1.60568359 9.27341797 1.64886719 9.98433594 1.69335938 10.71679688 C1.79971777 12.47761912 1.90038846 14.2387832 2 16 C1.34 16 0.68 16 0 16 C-0.93226067 14.47097374 -1.79551982 12.89963386 -2.625 11.3125 C-5.61474502 6.24574462 -8.31330333 2.89239572 -14 1 C-20.42325697 0.03910846 -26.56419948 0.25321553 -32.25 3.60546875 C-37.58564282 7.85730912 -40.8973416 13.27378376 -42 20 C-42.87779651 30.32782458 -41.422319 38.56455217 -35.875 47.375 C-29.07975258 53.57935634 -22.69999105 55.56401555 -13.56640625 55.46875 C-11.00242194 55.17998819 -11.00242194 55.17998819 -9.203125 53.7734375 C-6.84752116 50.30121625 -6.97393882 46.09160568 -7 42 C-7.77262795 39.00405043 -7.77262795 39.00405043 -9 37 C-11.31 36.67 -13.62 36.34 -16 36 C-16.33 35.01 -16.66 34.02 -17 33 C-9.08 33.33 -1.16 33.66 7 34 C7 34.66 7 35.32 7 36 C6.01 36.33 5.02 36.66 4 37 C4 42.94 4 48.88 4 55 C-6.70994216 60.35497108 -21.61305086 59.9220478 -33 57 C-35.9537958 55.98644262 -38.42129249 54.75398574 -41 53 C-41.61359375 52.59007812 -42.2271875 52.18015625 -42.859375 51.7578125 C-48.87748389 47.20565321 -52.55785725 40.38551895 -54 33 C-54.97568807 24.02686876 -52.95094954 15.44287998 -47.4375 8.1875 C-35.62311115 -4.22357516 -15.32243229 -6.44276565 0 0 Z " fill="#2B7777" transform="translate(257,324)"/>
<path d="M0 0 C6.6 0 13.2 0 20 0 C20 0.66 20 1.32 20 2 C18.35 2.66 16.7 3.32 15 4 C14.67 10.27 14.34 16.54 14 23 C22.25 23 30.5 23 39 23 C38.67 16.73 38.34 10.46 38 4 C36.02 3.34 34.04 2.68 32 2 C32 1.34 32 0.68 32 0 C38.93 0 45.86 0 53 0 C53 0.66 53 1.32 53 2 C51.35 2.33 49.7 2.66 48 3 C48 17.52 48 32.04 48 47 C49.65 47.66 51.3 48.32 53 49 C53 49.33 53 49.66 53 50 C46.07 50 39.14 50 32 50 C34 49 36 48 38 47 C38.33 40.07 38.66 33.14 39 26 C30.75 26 22.5 26 14 26 C14.33 32.93 14.66 39.86 15 47 C16.65 47.66 18.3 48.32 20 49 C20 49.33 20 49.66 20 50 C13.4 50 6.8 50 0 50 C3 48 3 48 5 47 C5 32.48 5 17.96 5 3 C3.35 2.67 1.7 2.34 0 2 C0 1.34 0 0.68 0 0 Z " fill="#2B7777" transform="translate(106,408)"/>
<path d="M0 0 C1 1 1 1 1.09765625 4.37890625 C1.09098369 5.77347077 1.07902532 7.16801743 1.0625 8.5625 C1.05798828 9.27341797 1.05347656 9.98433594 1.04882812 10.71679688 C1.03700864 12.47790013 1.01907263 14.23896036 1 16 C-2.17978433 13.12525312 -3.78526612 9.83260556 -5.71875 6.05859375 C-6.98127971 3.71398725 -6.98127971 3.71398725 -10 2 C-15.5687824 1.41115192 -15.5687824 1.41115192 -20.5 3.5625 C-22.60248778 6.97904264 -22.54531303 9.04648052 -22 13 C-19.10807044 18.37380941 -15.67789996 20.87121557 -10.625 23.9375 C1.55933966 31.67801897 1.55933966 31.67801897 4 39 C4.5117238 45.14068556 3.93944328 49.14670467 0 54 C-4.91150215 58.43233121 -10.54041541 59.60695649 -17 60 C-22.52738282 59.52745173 -27.02875918 58.48562041 -32 56 C-32.33 50.39 -32.66 44.78 -33 39 C-30 40 -30 40 -28.5703125 42.36328125 C-27.85488281 43.82314453 -27.85488281 43.82314453 -27.125 45.3125 C-24.10535618 51.09763136 -24.10535618 51.09763136 -19 55 C-14.98368288 56.07579923 -12.93605036 56.42732734 -9.125 54.6875 C-6.9104069 53.17274837 -6.9104069 53.17274837 -6 51 C-5.44230382 45.31149895 -6.60950687 41.52044732 -10 37 C-12.1567841 35.01594756 -14.48868519 33.41493835 -16.9375 31.8125 C-18.15580781 30.98694465 -19.37327068 30.16014086 -20.58984375 29.33203125 C-21.16959961 28.93943115 -21.74935547 28.54683105 -22.34667969 28.14233398 C-27.46395145 24.60664075 -30.19631988 22.11247153 -32 16 C-32.19438802 11.46687144 -31.61802684 8.05293462 -29.3125 4.125 C-21.18169063 -3.34655456 -9.97258209 -3.60710416 0 0 Z " fill="#2B7777" transform="translate(36,323)"/>
<path d="M0 0 C4.20820145 -0.08742801 8.41616776 -0.14053641 12.625 -0.1875 C14.40970703 -0.22520508 14.40970703 -0.22520508 16.23046875 -0.26367188 C27.41391766 -0.35738793 27.41391766 -0.35738793 32 3 C34.70257819 7.05386728 34.65653109 10.2381721 34 15 C32.45134151 18.98226469 30.07110735 22.06088867 27 25 C28.55947733 27.21052126 30.12246817 29.41841611 31.6875 31.625 C32.12255859 32.24246094 32.55761719 32.85992187 33.00585938 33.49609375 C38.48122678 41.72856227 38.48122678 41.72856227 46.3125 47.375 C47.00988281 47.69210937 47.70726562 48.00921875 48.42578125 48.3359375 C49.20501953 48.66464844 49.20501953 48.66464844 50 49 C50 49.33 50 49.66 50 50 C37.12782489 51.50845802 37.12782489 51.50845802 32.50390625 48.23046875 C30.38499761 45.5914256 28.678468 42.94011024 27 40 C25.97561115 38.22692325 24.94589962 36.45777449 23.90209961 34.69604492 C22.91923138 33.0132306 21.98564312 31.30192308 21.0546875 29.58984375 C18.91339516 26.29637685 18.91339516 26.29637685 13 26 C13.33 33.26 13.66 40.52 14 48 C15.65 48.33 17.3 48.66 19 49 C19 49.33 19 49.66 19 50 C12.73 50 6.46 50 0 50 C3 48 3 48 5 48 C5.0247279 42.23421542 5.04287328 36.46846175 5.05493164 30.70263672 C5.05995887 28.74136823 5.06678157 26.78010348 5.07543945 24.81884766 C5.08757545 21.99901403 5.09324444 19.17922998 5.09765625 16.359375 C5.10281754 15.48319519 5.10797882 14.60701538 5.11329651 13.70428467 C5.11340981 12.47346161 5.11340981 12.47346161 5.11352539 11.21777344 C5.115746 10.49829529 5.11796661 9.77881714 5.12025452 9.03753662 C4.99505875 6.91627776 4.57918565 5.04033713 4 3 C2.68 2.67 1.36 2.34 0 2 C0 1.34 0 0.68 0 0 Z M14 3 C12.70478758 6.88563725 12.85496536 10.57800269 12.875 14.625 C12.87113281 15.41390625 12.86726562 16.2028125 12.86328125 17.015625 C12.50019405 20.81445334 12.50019405 20.81445334 14 24 C17.87467279 24.25831152 20.77906604 24.30066711 24 22 C26.74958445 17.53562094 26.51018849 13.08542722 26 8 C25.16983836 4.88807839 25.16983836 4.88807839 23 3 C18.40343288 1.77650171 18.40343288 1.77650171 14 3 Z " fill="#2B7777" transform="translate(222,408)"/>
<path d="M0 0 C0 13.2 0 26.4 0 40 C-1.98 40.495 -1.98 40.495 -4 41 C-4 41.66 -4 42.32 -4 43 C-5.4800841 42.88637738 -6.95910074 42.75877092 -8.4375 42.625 C-9.26121094 42.55539063 -10.08492188 42.48578125 -10.93359375 42.4140625 C-11.95646484 42.20910156 -11.95646484 42.20910156 -13 42 C-14.44430855 39.11138291 -14.37688506 37.20352299 -14 34 C-10.72007058 29.78294789 -9.38756327 29.07751265 -4 28 C-4.33 22.72 -4.66 17.44 -5 12 C-6.77375 12.66 -8.5475 13.32 -10.375 14 C-15.75 16 -15.75 16 -18 16 C-17.97381592 16.91289795 -17.94763184 17.8257959 -17.9206543 18.76635742 C-17.83521458 22.16772344 -17.77265001 25.56794258 -17.7253418 28.9699707 C-17.70026356 30.43955525 -17.66619144 31.90901587 -17.62280273 33.37817383 C-17.56184501 35.49591681 -17.53372684 37.61200576 -17.51171875 39.73046875 C-17.48553467 41.00301514 -17.45935059 42.27556152 -17.43237305 43.58666992 C-18.14591464 47.87743337 -19.63173092 49.34424328 -23 52 C-23.66 52 -24.32 52 -25 52 C-25 52.66 -25 53.32 -25 54 C-25.99 54 -26.98 54 -28 54 C-28 53.34 -28 52.68 -28 52 C-28.639375 52.185625 -29.27875 52.37125 -29.9375 52.5625 C-30.618125 52.706875 -31.29875 52.85125 -32 53 C-33 52 -33 52 -33.09765625 49.93359375 C-33.08605469 49.10988281 -33.07445312 48.28617188 -33.0625 47.4375 C-33.05347656 46.61121094 -33.04445313 45.78492188 -33.03515625 44.93359375 C-33.02355469 44.29550781 -33.01195312 43.65742187 -33 43 C-26.375 39 -26.375 39 -23 39 C-23.02356567 37.72153198 -23.02356567 37.72153198 -23.04760742 36.41723633 C-23.09888962 33.23968774 -23.13642482 30.06235087 -23.16479492 26.88452148 C-23.17983432 25.51205483 -23.20027133 24.13963586 -23.22631836 22.76733398 C-23.26291221 20.78911344 -23.27816698 18.81053486 -23.29296875 16.83203125 C-23.31653442 15.04889526 -23.31653442 15.04889526 -23.34057617 13.22973633 C-22.96491113 9.66724684 -22.14995514 7.83600251 -20 5 C-17.36328125 3.41796875 -17.36328125 3.41796875 -14.3125 2.1875 C-13.31863281 1.76855469 -12.32476562 1.34960938 -11.30078125 0.91796875 C-8 0 -8 0 0 0 Z " fill="#CC9533" transform="translate(410,35)"/>
<path d="M0 0 C4.16642697 -0.11703447 8.3324259 -0.18753101 12.5 -0.25 C13.67304688 -0.28351563 14.84609375 -0.31703125 16.0546875 -0.3515625 C23.20361477 -0.43188753 27.98134655 0.01622462 34 4 C36.63385236 7.95077854 37.0549208 11.29250257 37 16 C35.43495869 21.21680437 33.26694711 24.60583753 29 28 C24.90443224 29.53583791 21.36729308 30.26468443 17 30 C17 29.01 17 28.02 17 27 C18.3921875 26.87625 18.3921875 26.87625 19.8125 26.75 C23.04377082 26.2928442 23.04377082 26.2928442 24.8125 24.125 C27.19297863 19.86519613 27.50611291 15.78095947 27 11 C25.78409972 7.71706926 24.91004015 5.69769744 22.125 3.5625 C19.53770867 2.71068311 19.53770867 2.71068311 15 4 C15 18.19 15 32.38 15 47 C17.31 47.66 19.62 48.32 22 49 C22 49.33 22 49.66 22 50 C14.74 50 7.48 50 0 50 C3 48 3 48 5 47 C5 32.15 5 17.3 5 2 C3.35 2 1.7 2 0 2 C0 1.34 0 0.68 0 0 Z " fill="#2B7777" transform="translate(342,408)"/>
<path d="M0 0 C10.56 0 21.12 0 32 0 C32 3.96 32 7.92 32 12 C30 11 30 11 29.125 8.5625 C28.24941658 5.93138249 28.24941658 5.93138249 26.2265625 4.84765625 C23.73184145 3.89791157 21.90797298 3.79682432 19.25 3.875 C18.05117187 3.90207031 18.05117187 3.90207031 16.828125 3.9296875 C15.92320312 3.96449219 15.92320312 3.96449219 15 4 C13.3501993 7.29960141 13.61741639 10.99127884 13.4375 14.625 C13.39431641 15.42679687 13.35113281 16.22859375 13.30664062 17.0546875 C13.20048543 19.0362511 13.09973145 21.01810271 13 23 C15.10662151 22.77160737 17.21035951 22.51650087 19.3125 22.25 C20.48425781 22.11078125 21.65601563 21.9715625 22.86328125 21.828125 C26.48130681 21.21983947 26.48130681 21.21983947 29 17 C29.495 24.92 29.495 24.92 30 33 C29.34 33 28.68 33 28 33 C27.71125 32.195625 27.4225 31.39125 27.125 30.5625 C26.26737432 27.8673532 26.26737432 27.8673532 24 27 C22.12943209 26.7724985 20.25314042 26.59037189 18.375 26.4375 C16.60125 26.293125 14.8275 26.14875 13 26 C13.33 32.93 13.66 39.86 14 47 C22.1284967 47.08691285 22.1284967 47.08691285 29 44 C30.91744593 41.55690423 30.91744593 41.55690423 32 39 C32.495 38.01 32.495 38.01 33 37 C33.66 37 34.32 37 35 37 C34.67 41.29 34.34 45.58 34 50 C22.78 50 11.56 50 0 50 C3 48 3 48 5 48 C4.67 33.15 4.34 18.3 4 3 C2.68 2.67 1.36 2.34 0 2 C0 1.34 0 0.68 0 0 Z " fill="#2B7777" transform="translate(173,408)"/>
<path d="M0 0 C0.66 0 1.32 0 2 0 C3.84353039 3.80791617 5.68566175 7.61650558 7.52688599 11.42553711 C8.49732018 13.43195934 9.46921037 15.43767192 10.44116211 17.44335938 C13.188013 23.11898042 15.93022538 28.79254202 18.53515625 34.53515625 C18.88707031 35.30738525 19.23898437 36.07961426 19.6015625 36.87524414 C20.21932012 38.24118533 20.82817107 39.61120876 21.42578125 40.98608398 C23.47296894 45.50112263 25.22914725 47.22914725 29 51 C22.73 51 16.46 51 10 51 C11.32 50.34 12.64 49.68 14 49 C13.47599609 47.66195312 13.47599609 47.66195312 12.94140625 46.296875 C12.48636719 45.12640625 12.03132813 43.9559375 11.5625 42.75 C10.88380859 41.00976562 10.88380859 41.00976562 10.19140625 39.234375 C9 36 9 36 8 32 C2.06 32 -3.88 32 -10 32 C-12.66424987 39.29767083 -12.66424987 39.29767083 -13 47 C-11.02 47.99 -9.04 48.98 -7 50 C-7 50.33 -7 50.66 -7 51 C-13.27 51 -19.54 51 -26 51 C-24.35 49.68 -22.7 48.36 -21 47 C-12.83787063 34.09856971 -7.80549078 18.75174939 -2.08813477 4.63525391 C-1.44136568 3.06890311 -0.75786081 1.51572163 0 0 Z M-2 13 C-3.00696568 15.10084209 -4.0053589 17.20579489 -5 19.3125 C-5.556875 20.48425781 -6.11375 21.65601563 -6.6875 22.86328125 C-8.19300084 25.89454167 -8.19300084 25.89454167 -8 29 C-3.38 29 1.24 29 6 29 C3.85989233 23.5390356 1.73177915 18.19038039 -1 13 C-1.33 13 -1.66 13 -2 13 Z " fill="#2B7777" transform="translate(303,407)"/>
<path d="M0 0 C8.25 0 16.5 0 25 0 C25 0.66 25 1.32 25 2 C23.02 2.66 21.04 3.32 19 4 C19 21.16 19 38.32 19 56 C20.98 56.33 22.96 56.66 25 57 C25 57.66 25 58.32 25 59 C16.75 59 8.5 59 0 59 C1 57 1 57 7 55 C7 37.84 7 20.68 7 3 C4.69 2.67 2.38 2.34 0 2 C0 1.34 0 0.68 0 0 Z " fill="#2B7777" transform="translate(334,322)"/>
<path d="M0 0 C0.66 0.33 1.32 0.66 2 1 C4.74816651 1.09900274 7.47043638 1.13983027 10.21875 1.1328125 C11.03243042 1.13376923 11.84611084 1.13472595 12.68444824 1.13571167 C14.40600665 1.13639263 16.12756761 1.13454417 17.84912109 1.13037109 C20.48931629 1.12502165 23.12934136 1.13031889 25.76953125 1.13671875 C27.44010454 1.13605795 29.11067773 1.13477676 30.78125 1.1328125 C31.97034973 1.13584885 31.97034973 1.13584885 33.18347168 1.13894653 C37.22237586 1.21567078 37.22237586 1.21567078 41 0 C41 5.61 41 11.22 41 17 C40.34 17 39.68 17 39 17 C38.81824219 16.45730469 38.63648438 15.91460937 38.44921875 15.35546875 C38.19785156 14.64003906 37.94648437 13.92460937 37.6875 13.1875 C37.44386719 12.47980469 37.20023438 11.77210938 36.94921875 11.04296875 C35.82694584 8.62754187 35.249695 7.47041921 33 6 C30.36 6 27.72 6 25 6 C25 20.19 25 34.38 25 49 C26.98 49.66 28.96 50.32 31 51 C31 51.33 31 51.66 31 52 C23.74 52 16.48 52 9 52 C11 51 13 50 15 49 C15 34.81 15 20.62 15 6 C7.31811669 5.08948816 7.31811669 5.08948816 4.125 8.6875 C2.34728578 11.45864275 1.00887821 13.88164916 0 17 C-0.33 17 -0.66 17 -1 17 C-1.02699725 14.72923158 -1.04639453 12.45837179 -1.0625 10.1875 C-1.07990234 8.29064453 -1.07990234 8.29064453 -1.09765625 6.35546875 C-1 3 -1 3 0 0 Z " fill="#2B7777" transform="translate(52,406)"/>
<path d="M0 0 C5.61 0 11.22 0 17 0 C17 0.66 17 1.32 17 2 C16.01 2.495 16.01 2.495 15 3 C16.52853935 7.27186525 18.71509481 10.99326863 21.125 14.8125 C21.68380859 15.7087207 21.68380859 15.7087207 22.25390625 16.62304688 C23.1657048 18.08426251 24.08235976 19.54244585 25 21 C27.70159529 17.77196965 29.91152202 14.63101087 31.8125 10.875 C32.25207031 10.02679688 32.69164062 9.17859375 33.14453125 8.3046875 C34.31297091 5.89459136 34.31297091 5.89459136 33 3 C32.01 2.67 31.02 2.34 30 2 C30 1.34 30 0.68 30 0 C35.61 0 41.22 0 47 0 C47 0.66 47 1.32 47 2 C46.154375 2.28875 45.30875 2.5775 44.4375 2.875 C40.27368765 4.96180478 38.20439774 8.46276099 35.74609375 12.30078125 C34 15 34 15 32.22265625 17.10546875 C25.64492427 25.60235076 27.479505 36.82765917 28 47 C29.65 47.66 31.3 48.32 33 49 C33 49.33 33 49.66 33 50 C26.4 50 19.8 50 13 50 C16 48 16 48 18 47 C19.77694434 31.534003 16.74336075 21.58948751 7.62011719 8.95751953 C5.35520388 6.22091994 2.77927519 4.19921625 0 2 C0 1.34 0 0.68 0 0 Z " fill="#2B7777" transform="translate(389,408)"/>
<path d="M0 0 C2.75806231 2.39032067 2.98155872 3.85246979 3.4375 7.5 C3 11 3 11 1.25 13.375 C-2.27358491 15.91981132 -2.27358491 15.91981132 -5 16 C-8.90340215 14.67284327 -10.57219931 13.81995133 -12.5 10.125 C-13.07640545 6.52246594 -12.91860286 5.08644808 -11 2 C-7.21535354 -1.15387205 -4.67401266 -1.52413456 0 0 Z " fill="#2F6F74" transform="translate(308,31)"/>
<path d="M0 0 C4 1 4 1 4 1 Z " fill="#2F6F74" transform="translate(186,205)"/>
<path d="M0 0 C2 1 2 1 2 1 Z " fill="#2F6F74" transform="translate(191,205)"/>
<path d="M0 0 C2 1 2 1 2 1 Z " fill="#2F6F74" transform="translate(383,184)"/>
<path d="" fill="#2F6F74" transform="translate(0,0)"/>
<path d="" fill="#2F6F74" transform="translate(0,0)"/>
<path d="" fill="#2F6F74" transform="translate(0,0)"/>
<path d="" fill="#2F6F74" transform="translate(0,0)"/>
<path d="" fill="#2F6F74" transform="translate(0,0)"/>
</svg>
