<?xml version="1.0" encoding="UTF-8"?>
<svg version="1.1" xmlns="http://www.w3.org/2000/svg" width="500" height="440">
<path d="M0 0 C3.54887893 2.79331116 6.97054906 5.64230155 10 9 C10 9.66 10 10.32 10 11 C15.98924037 8.79900707 21.90655726 6.53692142 27.6953125 3.8515625 C28.88954834 3.30048828 28.88954834 3.30048828 30.10791016 2.73828125 C31.68334062 2.00507418 33.25355065 1.26052722 34.81787109 0.50390625 C40.31700887 -2.04852832 40.31700887 -2.04852832 43.96875 -1.7890625 C46 -1 46 -1 47 0 C46.77727562 6.00032261 45.1831936 8.53734785 40.90625 12.64453125 C40.39952759 13.1403923 39.89280518 13.63625336 39.37072754 14.1471405 C37.76079661 15.71711443 36.13156155 17.26504701 34.5 18.8125 C32.87304009 20.38202366 31.25030059 21.95577015 29.62927246 23.53141785 C28.1629089 24.95250762 26.68618749 26.36288623 25.20898438 27.77270508 C22.97138122 29.79697968 22.97138122 29.79697968 22 32 C23.09489746 32.40641724 23.09489746 32.40641724 24.21191406 32.82104492 C28.75844595 34.74356703 32.67131384 37.55770522 36.75 40.3125 C37.62527344 40.88162109 38.50054687 41.45074219 39.40234375 42.03710938 C40.23378906 42.59849609 41.06523437 43.15988281 41.921875 43.73828125 C42.68081055 44.24399658 43.43974609 44.74971191 44.22167969 45.27075195 C46.44724851 47.43490681 46.76339277 48.94403417 47 52 C46.67 52.33 46.34 52.66 46 53 C35.2957702 52.8045576 24.60896533 51.33748278 14 50 C13.566875 51.32451172 13.566875 51.32451172 13.125 52.67578125 C11.86200793 56.40774741 10.44162979 60.06444925 9 63.73046875 C6.27269852 72.64746617 5.74364613 81.27639289 5.91015625 90.55078125 C5.93060067 92.96679467 5.95077405 95.3828104 5.97070312 97.79882812 C6.0138215 101.53892106 6.06201019 105.27885349 6.11645508 109.01879883 C6.41357752 131.07172387 5.3627651 152.05772144 -2 173 C-2.33040283 173.95181152 -2.33040283 173.95181152 -2.66748047 174.92285156 C-7.74476869 189.25134977 -14.9221392 202.57712489 -25 214 C-25.69738281 214.81726563 -26.39476562 215.63453125 -27.11328125 216.4765625 C-47.84720486 240.26717467 -75.11687042 253.33027053 -105.69482422 259.70776367 C-109.75931152 260.52569745 -109.75931152 260.52569745 -113 263 C-98.66691335 277.73534988 -98.66691335 277.73534988 -83 291 C-82.67 291.33 -82.34 291.66 -82 292 C-80.04583843 292.20999945 -78.08599701 292.36832634 -76.125 292.5 C-72.81281812 292.72347251 -70.15623804 292.94792065 -67 294 C-64.62815594 293.68190177 -64.62815594 293.68190177 -62.01953125 292.99609375 C-60.53259766 292.63197388 -60.53259766 292.63197388 -59.015625 292.26049805 C-57.95859375 291.98890869 -56.9015625 291.71731934 -55.8125 291.4375 C-54.18634766 291.02141479 -54.18634766 291.02141479 -52.52734375 290.59692383 C-20.67299491 282.24319651 4.48041318 265.46794078 21.5859375 236.7890625 C22.33877228 235.42770886 23.0814565 234.06067855 23.8125 232.6875 C24.15595459 232.07914307 24.49940918 231.47078613 24.85327148 230.84399414 C27.26509327 226.02099322 27.03272337 222.22277371 26.36108398 216.94262695 C23.67528111 195.0548771 27.0530267 177.80491267 40 160 C40.54269531 159.25234375 41.08539063 158.5046875 41.64453125 157.734375 C50.4193928 146.80467403 62.94612971 139.45286394 75.15185547 132.99462891 C76.89336265 132.05738977 78.60614854 131.06733659 80.31640625 130.07421875 C81.28449219 129.51347656 82.25257813 128.95273438 83.25 128.375 C84.08015625 127.88773438 84.9103125 127.40046875 85.765625 126.8984375 C88.3934102 125.84181058 89.36077831 126.21100433 92 127 C91.90471136 131.28295337 91.79829474 135.56546062 91.68261719 139.84790039 C91.6449063 141.29737259 91.6099664 142.74692019 91.578125 144.1965332 C91.03811774 168.50529753 87.46406227 190.18183555 70.1875 208.375 C63.74304952 214.41482189 56.89265225 219.63733737 48.55078125 222.7109375 C37.59072813 226.79583141 32.78012707 230.51524409 27.7890625 241.171875 C27.48645508 241.83767578 27.18384766 242.50347656 26.87207031 243.18945312 C22.50403921 252.25813137 13.83482754 259.73869718 7 267 C10.33865031 265.88711656 13.46851504 264.48581335 16.6875 263.0625 C20.64931918 261.31860487 24.48840468 259.73045836 28.75 258.875 C30.35875 258.441875 30.35875 258.441875 32 258 C32.71244912 256.69055795 33.3733109 255.35258382 34 254 C44.63446126 241.07339922 60.55606466 233.65589279 77 232 C97.20983039 230.04533592 114.28669815 240.82369382 130 252 C130.74056641 252.46905762 131.48113281 252.93811523 132.24414062 253.42138672 C132.82357422 253.9423291 133.40300781 254.46327148 134 255 C134 256.32 134 257.64 134 259 C131.8634942 260.65447029 129.90053745 261.93862309 127.5625 263.25 C126.89089844 263.63696045 126.21929687 264.0239209 125.52734375 264.42260742 C104.36560227 276.40173437 83.23790446 284.30903048 58.84594727 277.92260742 C52.73421994 276.13412622 47.13485241 273.42519651 41.5 270.48828125 C32.60419674 266.70557919 24.78105733 268.32444689 16.00634766 271.78662109 C8.99308549 274.71354322 2.1252463 277.96141151 -4.7109375 281.27734375 C-12.82190387 285.20584426 -20.92688029 288.90802384 -29.375 292.0625 C-30.16575928 292.36164307 -30.95651855 292.66078613 -31.77124023 292.96899414 C-35.6306406 294.36758226 -38.82827466 295.39057986 -43 295 C-43 295.66 -43 296.32 -43 297 C-42.06929688 296.81179688 -41.13859375 296.62359375 -40.1796875 296.4296875 C-35.08136718 295.71085759 -30.19531301 296.43357457 -25.125 297.125 C-24.10994385 297.26333252 -23.0948877 297.40166504 -22.04907227 297.54418945 C-4.80121798 300.05862422 14.84138292 305.49042547 27 319 C27 320.32 27 321.64 27 323 C22.38040212 322.39936395 18.73187467 320.41691154 14.6875 318.25 C-9.07080322 306.05192669 -33.83152412 305.4886921 -60 306 C-60 307.98 -60 309.96 -60 312 C-62.375 311.6875 -62.375 311.6875 -65 311 C-65.66 310.01 -66.32 309.02 -67 308 C-73.65988048 307.36065147 -79.83320747 308.79311766 -86.3125 310.25 C-87.7655957 310.55744141 -87.7655957 310.55744141 -89.24804688 310.87109375 C-96.08210362 312.37558923 -102.46599855 314.49556701 -109 317 C-108.67 320.63 -108.34 324.26 -108 328 C-109.65 327.67 -111.3 327.34 -113 327 C-114.8125 323.9375 -114.8125 323.9375 -116 321 C-131.30126485 323.63867037 -145.88810169 334.06175121 -158.64404297 342.45458984 C-173.41750383 352.1453678 -188.31678707 361.75654277 -204.5 368.9375 C-205.45169067 369.36156128 -205.45169067 369.36156128 -206.42260742 369.79418945 C-213.62509718 372.87745678 -219.95674223 374.27505151 -227.8125 374.1875 C-229.09769531 374.18105469 -230.38289063 374.17460937 -231.70703125 374.16796875 C-235 374 -235 374 -238 373 C-238.495 369.535 -238.495 369.535 -239 366 C-238.46375 365.79246094 -237.9275 365.58492188 -237.375 365.37109375 C-234.57381839 364.26997138 -231.78624023 363.13842699 -229 362 C-227.37771484 361.34064453 -227.37771484 361.34064453 -225.72265625 360.66796875 C-206.32715403 352.49163644 -187.86876248 342.21328167 -169.66796875 331.6875 C-158.74544682 325.3760162 -147.68966337 319.7551173 -136 315 C-136.78375 314.113125 -137.5675 313.22625 -138.375 312.3125 C-148.56170897 300.3295268 -157.07837741 287.47505572 -165.5546875 274.24560547 C-166.6868762 272.48650552 -167.83959107 270.7406134 -169 269 C-171.7958327 268.83008752 -174.28762286 268.85578967 -177.0625 269.0625 C-177.86308838 269.11704346 -178.66367676 269.17158691 -179.48852539 269.2277832 C-200.70227043 270.94927934 -217.73346207 278.8175014 -232 295 C-237.88354368 302.1670556 -243.44925882 309.57416619 -249 317 C-250.51235253 319.01865237 -252.02553541 321.03667192 -253.54003906 323.05371094 C-254.48678217 324.31582399 -255.43156661 325.57940961 -256.37402344 326.84472656 C-270.98299355 346.38382391 -290.32317059 366.85689904 -315.4375 371.4375 C-317.28777768 371.66012699 -319.14229477 371.85160343 -321 372 C-321.72703125 372.06960938 -322.4540625 372.13921875 -323.203125 372.2109375 C-328.45562105 372.47976604 -333.25094382 371.14791338 -338 369 C-340 367 -340 367 -340.625 363.0625 C-340.39768682 353.60627163 -331.31883911 346.072052 -325.28515625 339.53125 C-322.92911726 336.92148374 -320.70884282 334.23512364 -318.5 331.5 C-314.89255892 327.040802 -311.12318381 322.77871536 -307.2578125 318.54296875 C-304.87767687 315.86222776 -302.62268159 313.10495866 -300.375 310.3125 C-297.31461645 306.52952589 -294.15704685 303.03758645 -290.6640625 299.65625 C-288.3138242 297.31704569 -286.17990951 294.8111563 -284.015625 292.30078125 C-281.55518888 289.49226017 -279.02987741 286.74573287 -276.5 284 C-271.69475969 278.77178018 -271.69475969 278.77178018 -266.9375 273.5 C-266.41027344 272.9121875 -265.88304687 272.324375 -265.33984375 271.71875 C-263.92531699 269.90419672 -262.95663396 268.08720136 -262 266 C-263.32 266 -264.64 266 -266 266 C-265.56259544 260.69238947 -264.59978395 257.87649945 -261.1875 253.8125 C-251.43855896 241.41741782 -244.08424793 227.27257324 -236.48828125 213.49609375 C-213.72870468 172.27988078 -185.42348287 132.21803774 -148 103 C-126.69786013 85.72197277 -112.20415505 68.04787805 -103.0625 42 C-95.69080035 21.1444318 -84.03255488 4.11415502 -63.5625 -5.8125 C-42.35694573 -14.66559459 -19.17924254 -12.85284311 0 0 Z M-80 18 C-88.23127886 29.05613482 -93.58143819 41.19050294 -98.21191406 54.10766602 C-104.25258985 70.90245202 -113.87030722 83.97905739 -126 97 C-126.86238281 97.92619141 -126.86238281 97.92619141 -127.7421875 98.87109375 C-131.85682135 103.13338192 -136.36377783 106.8274744 -140.96875 110.546875 C-149.02206199 117.06424605 -156.8542678 123.6436226 -164.08203125 131.08203125 C-165.70303584 132.70303584 -167.32959847 134.14408567 -169.125 135.5625 C-172.85060369 138.721164 -175.85491228 142.2742807 -179 146 C-179.8146875 146.9384375 -180.629375 147.876875 -181.46875 148.84375 C-198.33421182 168.34328358 -211.76008524 189.63344908 -224.35693359 212.07421875 C-226.17595109 215.3133132 -228.00400796 218.54723024 -229.83203125 221.78125 C-231.11768154 224.06222161 -232.40284579 226.34346725 -233.6875 228.625 C-234.30028809 229.71055176 -234.91307617 230.79610352 -235.54443359 231.91455078 C-236.1111377 232.92501465 -236.6778418 233.93547852 -237.26171875 234.9765625 C-237.76662842 235.87455566 -238.27153809 236.77254883 -238.79174805 237.69775391 C-240.10788692 240.05557883 -240.10788692 240.05557883 -241 243 C-241.66 243 -242.32 243 -243 243 C-244.83041655 245.60108946 -244.83041655 245.60108946 -246.625 248.8125 C-247.57246094 250.43091797 -247.57246094 250.43091797 -248.5390625 252.08203125 C-250.22384617 254.9032168 -250.22384617 254.9032168 -250 258 C-232.96320812 250.20389066 -218.37364128 240.1327781 -205 227 C-204.31260742 226.33693848 -203.62521484 225.67387695 -202.91699219 224.99072266 C-192.46045847 214.89654407 -182.66184599 204.67515041 -174.40234375 192.6796875 C-173 191 -173 191 -170 190 C-172.92685013 198.8828878 -177.67492407 206.40250535 -183 214 C-183.39010254 214.55671387 -183.78020508 215.11342773 -184.18212891 215.68701172 C-192.48652012 227.30766664 -202.7769573 237.08703559 -213 247 C-212.34 247.33 -211.68 247.66 -211 248 C-208.61606374 246.9690288 -206.35874087 245.88786049 -204.0625 244.6875 C-203.11213867 244.20506836 -203.11213867 244.20506836 -202.14257812 243.71289062 C-199.31534347 242.26508487 -196.64557412 240.76371608 -194 239 C-194 238.34 -194 237.68 -194 237 C-193.4328125 236.74089844 -192.865625 236.48179687 -192.28125 236.21484375 C-183.17565886 231.36580463 -175.47289059 223.0479412 -168 216 C-166.89978516 214.96359375 -166.89978516 214.96359375 -165.77734375 213.90625 C-157.0696457 205.45822486 -147.06019137 194.84049214 -141.96484375 183.74609375 C-141 182 -141 182 -138 181 C-142.55676461 200.85933232 -156.17255919 218.18748754 -171.8125 230.8125 C-172.78832031 231.60269531 -173.76414063 232.39289063 -174.76953125 233.20703125 C-175.50558594 233.79871094 -176.24164063 234.39039063 -177 235 C-176.67 235.66 -176.34 236.32 -176 237 C-162.40064591 232.71612557 -153.14241142 226.94541343 -143 217 C-141.99393482 216.05542714 -140.98621544 215.11261193 -139.9765625 214.171875 C-128.86777936 203.52984746 -118.95327049 190.70057671 -112.46484375 176.68359375 C-111 174 -111 174 -108 173 C-109.55209779 180.93787155 -112.09882223 187.88605559 -115.66235352 195.09790039 C-117.41388115 198.38982973 -117.41388115 198.38982973 -118 202 C-118.66 202 -119.32 202 -120 202 C-121.41816491 203.81704071 -121.41816491 203.81704071 -122.8125 206.125 C-125.31404062 210.01560248 -127.96291547 213.51628539 -131 217 C-127.48141966 215.3546207 -124.3028526 213.32457996 -121.0625 211.1875 C-120.04285156 210.52105469 -119.02320313 209.85460937 -117.97265625 209.16796875 C-114.98596968 206.98976764 -112.58439021 204.63607802 -110 202 C-108.38503492 200.59084121 -106.73995549 199.22294621 -105.09082031 197.85400391 C-81.81423697 178.49519805 -64.84577156 152.77751625 -61.28125 122.2734375 C-60.24525088 110.21555891 -62.01302921 98.87250278 -64 87 C-62.68 87 -61.36 87 -60 87 C-59.53522553 88.45629333 -59.07865911 89.91520585 -58.625 91.375 C-58.36976563 92.18710938 -58.11453125 92.99921875 -57.8515625 93.8359375 C-50.75136933 120.21738917 -55.92284836 146.81868437 -69.3125 170.3203125 C-74.95930103 179.28722339 -81.74064303 187.30900558 -89 195 C-89.93392578 196.01320312 -89.93392578 196.01320312 -90.88671875 197.046875 C-104.19645131 210.99837664 -121.51004486 221.89037171 -138.88671875 230.00244141 C-140.99259375 230.99650393 -143.07364264 232.03243029 -145.15625 233.07421875 C-171.37289177 245.85751596 -200.59436965 252.96770458 -228.59765625 260.72265625 C-229.33133423 260.9267511 -230.06501221 261.13084595 -230.82092285 261.34112549 C-235.13445204 262.52845573 -239.45953696 263.55713669 -243.828125 264.52734375 C-248.27873399 265.62725753 -250.80261365 266.77444446 -253.6875 270.5 C-254.76644531 271.83611328 -254.76644531 271.83611328 -255.8671875 273.19921875 C-256.57101562 274.12347656 -257.27484375 275.04773438 -258 276 C-259.43185771 277.77539867 -260.86945015 279.5461863 -262.3125 281.3125 C-263.04855469 282.22257812 -263.78460938 283.13265625 -264.54296875 284.0703125 C-268.28002327 288.52625987 -272.2522892 292.75290191 -276.21875 297.00390625 C-278.9549604 299.93856506 -281.60176122 302.94203614 -284.2265625 305.9765625 C-286.45138092 308.51501171 -288.72503319 311.00641776 -291 313.5 C-294.45643771 317.29009082 -297.86843854 321.11056033 -301.23046875 324.984375 C-303.25114956 327.28607764 -305.31312618 329.54764379 -307.375 331.8125 C-311.27668051 336.13669752 -314.9931249 340.5803959 -318.64453125 345.1171875 C-320.34362577 347.19667631 -322.06040864 349.23502315 -323.82421875 351.2578125 C-324.29093994 351.79873535 -324.75766113 352.3396582 -325.23852539 352.89697266 C-326.56142614 354.42649657 -327.89376611 355.9478412 -329.2265625 357.46875 C-330.10441406 358.72171875 -330.10441406 358.72171875 -331 360 C-330.505 361.485 -330.505 361.485 -330 363 C-314.05423516 364.31421139 -300.39577274 357.55298267 -288.33349609 347.62890625 C-284.76163203 344.54687953 -281.37297918 341.29701118 -278 338 C-277.05253906 337.12794922 -277.05253906 337.12794922 -276.0859375 336.23828125 C-266.60952265 327.32326539 -259.24624898 316.02069745 -251.7121582 305.48779297 C-247.37071009 299.44474687 -242.80433784 293.68414457 -238 288 C-237.51789063 287.37222656 -237.03578125 286.74445313 -236.5390625 286.09765625 C-225.06376311 271.47162437 -206.56966956 264.19092118 -188.62243652 261.66543579 C-183.50681118 261.07762546 -178.37721954 260.66820003 -173.24346924 260.275177 C-130.26162266 256.94317308 -79.22270261 252.71006124 -46 222 C-44.80310547 221.02933594 -44.80310547 221.02933594 -43.58203125 220.0390625 C-19.76992212 200.27766192 -6.5909527 168.1017145 -3 138 C-2.73237016 133.23017816 -2.69963643 128.47187505 -2.69140625 123.6953125 C-2.68025789 122.35976093 -2.66785467 121.02421932 -2.65428162 119.68869019 C-2.59973515 114.094795 -2.56834049 108.50083723 -2.54370117 102.90673828 C-2.52760288 99.45506743 -2.49717162 96.00373496 -2.45893669 92.55224228 C-2.44203314 90.64118637 -2.44123409 88.73000883 -2.4410553 86.81887817 C-2.27674563 72.05929198 0.57904035 56.9643271 8 44 C13.16952834 41.41523583 20.48646037 43.06152517 26 44 C22.60133279 40.17649939 18.56469541 37.28703425 14 35 C13.01 35 12.02 35 11 35 C12 32 13 29 14 26 C15.33333333 25.33333333 16.66666667 24.66666667 18 24 C19.79598318 22.34007615 21.5433101 20.6266028 23.25 18.875 C24.14203125 17.96492188 25.0340625 17.05484375 25.953125 16.1171875 C26.96632813 15.06917969 26.96632813 15.06917969 28 14 C27.34 13.67 26.68 13.34 26 13 C22.58528629 14.41091468 19.26920347 15.94939046 15.94140625 17.55078125 C14.89146484 18.03611328 14.89146484 18.03611328 13.8203125 18.53125 C13.18367676 18.83611328 12.54704102 19.14097656 11.89111328 19.45507812 C9.53018155 20.13537759 8.28096845 19.8646366 6 19 C3.9140625 16.99609375 3.9140625 16.99609375 1.625 14.4375 C-8.98942917 3.5260544 -22.15183001 -2.16514732 -37.375 -2.4375 C-54.40686574 -2.32098497 -69.12166188 4.98830869 -80 18 Z M57 156 C56.175 156.6290625 55.35 157.258125 54.5 157.90625 C43.12587313 167.43208125 36.17145474 180.32368088 33.25 194.6875 C32.7283587 201.59924728 33.00273864 208.14382812 34 215 C36.84856582 212.48665392 38.40261243 209.69696155 40.1875 206.36328125 C40.79883789 205.23543213 41.41017578 204.10758301 42.04003906 202.94555664 C42.36008911 202.35163116 42.68013916 201.75770569 43.0098877 201.14578247 C49.04871901 189.96434017 55.44253295 179.23520267 63 169 C63.53109375 168.22527344 64.0621875 167.45054687 64.609375 166.65234375 C66 165 66 165 69 164 C66.28309505 171.46642732 62.79665431 178.17490122 58.75 185 C57.65764505 186.85192269 56.56890194 188.70598221 55.484375 190.5625 C55.00709961 191.36816406 54.52982422 192.17382812 54.03808594 193.00390625 C52.84620209 194.92074988 52.84620209 194.92074988 53 197 C52.34 197 51.68 197 51 197 C49.2995208 199.95105384 47.61688907 202.91190122 45.9375 205.875 C45.45216797 206.71675781 44.96683594 207.55851562 44.46679688 208.42578125 C44.01240234 209.23144531 43.55800781 210.03710938 43.08984375 210.8671875 C42.66566162 211.61081543 42.24147949 212.35444336 41.80444336 213.12060547 C41.53897705 213.74080566 41.27351074 214.36100586 41 215 C41.33 215.66 41.66 216.32 42 217 C51.61357505 212.60742462 58.63014333 206.38848758 66 199 C66.63035156 198.38125 67.26070313 197.7625 67.91015625 197.125 C75.67482771 188.84268378 80.03608889 178.02932479 82 167 C82.19529297 165.95199219 82.19529297 165.95199219 82.39453125 164.8828125 C83.58750458 156.70696864 83.08000021 148.24002144 83 140 C74.15471861 140 63.45446795 150.59097404 57 156 Z M49 251 C48.23171875 251.52464844 47.4634375 252.04929687 46.671875 252.58984375 C46.12015625 253.05519531 45.5684375 253.52054687 45 254 C45 254.66 45 255.32 45 256 C46.74796875 255.7834375 46.74796875 255.7834375 48.53125 255.5625 C62.05356832 253.99578778 75.39753581 253.77106158 89 254 C88.67 254.66 88.34 255.32 88 256 C85.54726622 256.61549154 83.17719337 257.09285246 80.6875 257.5 C79.94072998 257.62745605 79.19395996 257.75491211 78.42456055 257.88623047 C70.77336084 259.13633892 63.08154034 259.87737811 55.36328125 260.5703125 C51.8749557 260.89036994 48.44730331 261.365117 45 262 C47.0730746 266.14614919 52.87005932 267.44208643 57 269 C78.32432318 275.24726423 95.03545452 270.46796658 113.953125 260.43359375 C115.98403367 259.31276208 118.00055742 258.17582395 120 257 C116.59492879 253.15725897 112.74933038 250.88952747 108.3125 248.4375 C107.59860107 248.03982422 106.88470215 247.64214844 106.14916992 247.23242188 C101.20314958 244.53101715 96.47184375 242.43523771 91 241 C90.175 240.773125 89.35 240.54625 88.5 240.3125 C74.0924744 238.5115593 60.81930633 242.88834231 49 251 Z M-136.83203125 263.875 C-138.12431641 264.05546875 -139.41660156 264.2359375 -140.74804688 264.421875 C-142.10287512 264.61450927 -143.4576927 264.80721854 -144.8125 265 C-146.18680504 265.19302128 -147.56115362 265.38573285 -148.93554688 265.578125 C-152.29080538 266.04903847 -155.64558686 266.52310829 -159 267 C-158.12088434 271.13017439 -156.11404321 274.12472067 -153.75 277.5625 C-153.3161499 278.20219727 -152.8822998 278.84189453 -152.43530273 279.50097656 C-151.48210346 280.90428378 -150.52615649 282.30572746 -149.56787109 283.70556641 C-147.88645682 286.16615988 -146.21813669 288.63532975 -144.55078125 291.10546875 C-143.38847969 292.82062354 -142.22572525 294.53547152 -141.0625 296.25 C-140.50723633 297.07185791 -139.95197266 297.89371582 -139.37988281 298.74047852 C-138.59049316 299.89761353 -138.59049316 299.89761353 -137.78515625 301.078125 C-137.31988525 301.76293945 -136.85461426 302.44775391 -136.37524414 303.15332031 C-134.4250729 305.77201289 -132.97271277 307.69429027 -129.8125 308.6875 C-122.86249864 309.45972237 -117.82966185 308.97245169 -111.375 306.25 C-104.02346319 303.31182649 -96.65099118 301.03229453 -89 299 C-89 298.01 -89 297.02 -89 296 C-90.6561468 294.39112076 -90.6561468 294.39112076 -92.875 292.875 C-97.32569365 289.56139579 -101.426991 286.00137645 -105.51953125 282.2578125 C-107.8772567 280.1117254 -110.2774131 278.02433246 -112.6875 275.9375 C-116.84405458 272.26083183 -120.4410273 268.24746444 -124 264 C-125.01670134 262.76086545 -125.01670134 262.76086545 -127.13549805 262.8828125 C-130.41235376 263.0168695 -133.5842249 263.41715946 -136.83203125 263.875 Z " fill="#2F6F74" transform="translate(354,31)"/>
<path d="M0 0 C1.6031796 1.6031796 1.14337008 3.3127234 1.16113281 5.53222656 C1.17074036 6.49702942 1.1803479 7.46183228 1.19024658 8.45587158 C1.19449646 9.50684021 1.19874634 10.55780884 1.203125 11.640625 C1.20882507 12.71495789 1.21452515 13.78929077 1.22039795 14.8961792 C1.22986625 17.17605601 1.23638916 19.45594662 1.24023438 21.73583984 C1.24992017 25.22127313 1.28091868 28.70611203 1.3125 32.19140625 C1.31903168 34.40364232 1.3242815 36.61588262 1.328125 38.828125 C1.3404718 39.8709967 1.3528186 40.91386841 1.36553955 41.98834229 C1.33749454 51.12216854 1.33749454 51.12216854 -2 55 C-4.64458379 56.32229189 -6.67761301 56.09677194 -9.625 56.0625 C-10.62789063 56.05347656 -11.63078125 56.04445312 -12.6640625 56.03515625 C-13.43492187 56.02355469 -14.20578125 56.01195312 -15 56 C-16.49904535 53.30404247 -17.00727654 52.17463693 -16.875 49 C-15.85740382 45.51109881 -14.84987467 44.21656919 -12 42 C-8.54155416 40.22643803 -5.86808396 39.77896663 -2 40 C-2.33 39.34 -2.66 38.68 -3 38 C-3.08471364 36.18658158 -3.10721083 34.37005839 -3.09765625 32.5546875 C-3.09443359 31.47832031 -3.09121094 30.40195313 -3.08789062 29.29296875 C-3.07532227 27.60107422 -3.07532227 27.60107422 -3.0625 25.875 C-3.05798828 24.73933594 -3.05347656 23.60367188 -3.04882812 22.43359375 C-3.03701615 19.62234362 -3.02054507 16.8111977 -3 14 C-3.78375 14.350625 -4.5675 14.70125 -5.375 15.0625 C-6.24125 15.371875 -7.1075 15.68125 -8 16 C-8.66 15.67 -9.32 15.34 -10 15 C-10 15.66 -10 16.32 -10 17 C-10.86431641 17.19916016 -10.86431641 17.19916016 -11.74609375 17.40234375 C-14.63115955 18.1673612 -17.33072032 19.26894539 -20.09765625 20.37890625 C-22 21 -22 21 -25 21 C-24.94875977 22.24612061 -24.89751953 23.49224121 -24.84472656 24.77612305 C-24.65982869 29.40668379 -24.50233132 34.03784395 -24.35302734 38.66967773 C-24.28463889 40.67287593 -24.20885631 42.67583608 -24.12548828 44.6784668 C-24.00682123 47.56007447 -23.91492156 50.44149663 -23.828125 53.32421875 C-23.78560608 54.21711105 -23.74308716 55.11000336 -23.69927979 56.029953 C-23.59774595 60.22909159 -23.61077096 62.37383133 -25.87695312 66.01953125 C-27.94584533 67.94948221 -29.68060589 69.15627265 -32.25 70.3125 C-32.95640625 70.63863281 -33.6628125 70.96476562 -34.390625 71.30078125 C-35.18726563 71.64689453 -35.18726563 71.64689453 -36 72 C-36 71.34 -36 70.68 -36 70 C-38.97 70.495 -38.97 70.495 -42 71 C-44.53418918 67.19871623 -44.68690436 65.50303968 -44 61 C-41.65417426 57.79855393 -39.03233689 55.34193509 -35.02416992 54.66757202 C-33.01611328 54.44504801 -31.00805664 54.22252401 -29 54 C-29.02094727 52.71834961 -29.04189453 51.43669922 -29.06347656 50.11621094 C-29.13588666 45.36030249 -29.1818036 40.60444276 -29.21972656 35.84814453 C-29.23983969 33.78979295 -29.26713397 31.73149848 -29.30175781 29.67333984 C-29.35028883 26.71437487 -29.37297166 23.75616539 -29.390625 20.796875 C-29.41127014 19.87694763 -29.43191528 18.95702026 -29.45318604 18.00921631 C-29.45542877 11.62085544 -29.45542877 11.62085544 -27.13012695 8.45092773 C-24.74955498 6.82941034 -22.72124176 6.03887606 -19.9375 5.3125 C-19.08027344 5.08175781 -18.22304688 4.85101563 -17.33984375 4.61328125 C-16.18162109 4.30970703 -16.18162109 4.30970703 -15 4 C-14.01 3.67 -13.02 3.34 -12 3 C-11.34 3.33 -10.68 3.66 -10 4 C-9.67 3.34 -9.34 2.68 -9 2 C-5.9537211 0.04167785 -3.58936124 -0.29102929 0 0 Z " fill="#CC9533" transform="translate(472,57)"/>
<path d="M0 0 C2.33444289 3.73510862 2.36633057 7.21290365 1.5625 11.5 C-0.31370613 14.00160818 -1.67641303 15.11945652 -4.4375 16.5 C-6.49609375 16.484375 -6.49609375 16.484375 -8.875 16.25 C-10.04869141 16.14945313 -10.04869141 16.14945313 -11.24609375 16.046875 C-13.87616425 15.39052942 -14.82157185 14.65788559 -16.4375 12.5 C-17.41763627 8.15939653 -17.93250644 5.76501646 -16.3125 1.625 C-11.75748714 -3.5373479 -5.75764837 -3.54316823 0 0 Z " fill="#2F6F74" transform="translate(336.4375,54.5)"/>
<path d="M0 0 C1.65 0 3.3 0 5 0 C5 0.33 5 0.66 5 1 C3.35 1 1.7 1 0 1 C0 0.67 0 0.34 0 0 Z " fill="#2F6F74" transform="translate(326,338)"/>
<path d="M0 0 C1.65 0 3.3 0 5 0 C5 0.33 5 0.66 5 1 C3.35 1 1.7 1 0 1 C0 0.67 0 0.34 0 0 Z " fill="#2F6F74" transform="translate(308,337)"/>
<path d="M0 0 C4 1 4 1 4 1 Z " fill="#2F6F74" transform="translate(171,289)"/>
<path d="M0 0 C1 4 1 4 1 4 Z " fill="#2F6F74" transform="translate(349,143)"/>
<path d="M0 0 C3 1 3 1 3 1 Z " fill="#2F6F74" transform="translate(314,337)"/>
<path d="M0 0 C3 1 3 1 3 1 Z " fill="#2F6F74" transform="translate(436,312)"/>
<path d="M0 0 C3 1 3 1 3 1 Z " fill="#2F6F74" transform="translate(431,312)"/>
<path d="M0 0 C3 1 3 1 3 1 Z " fill="#2F6F74" transform="translate(436,261)"/>
<path d="" fill="#2F6F74" transform="translate(0,0)"/>
<path d="" fill="#2F6F74" transform="translate(0,0)"/>
<path d="" fill="#2F6F74" transform="translate(0,0)"/>
<path d="M0 0 C2 1 2 1 2 1 Z " fill="#2F6F74" transform="translate(338,328)"/>
<path d="M0 0 C2 1 2 1 2 1 Z " fill="#2F6F74" transform="translate(432,301)"/>
<path d="M0 0 C2 1 2 1 2 1 Z " fill="#2F6F74" transform="translate(381,300)"/>
<path d="M0 0 C2 1 2 1 2 1 Z " fill="#2F6F74" transform="translate(430,291)"/>
<path d="M0 0 C2 1 2 1 2 1 Z " fill="#2F6F74" transform="translate(436,290)"/>
<path d="M0 0 C2 1 2 1 2 1 Z " fill="#2F6F74" transform="translate(440,273)"/>
<path d="" fill="#2F6F74" transform="translate(0,0)"/>
<path d="" fill="#2F6F74" transform="translate(0,0)"/>
<path d="" fill="#2F6F74" transform="translate(0,0)"/>
<path d="" fill="#2F6F74" transform="translate(0,0)"/>
<path d="" fill="#2F6F74" transform="translate(0,0)"/>
<path d="" fill="#2F6F74" transform="translate(0,0)"/>
<path d="" fill="#2F6F74" transform="translate(0,0)"/>
<path d="" fill="#2F6F74" transform="translate(0,0)"/>
<path d="" fill="#2F6F74" transform="translate(0,0)"/>
<path d="" fill="#2F6F74" transform="translate(0,0)"/>
<path d="" fill="#2F6F74" transform="translate(0,0)"/>
<path d="" fill="#2F6F74" transform="translate(0,0)"/>
<path d="" fill="#2F6F74" transform="translate(0,0)"/>
<path d="" fill="#2F6F74" transform="translate(0,0)"/>
<path d="" fill="#2F6F74" transform="translate(0,0)"/>
<path d="" fill="#2F6F74" transform="translate(0,0)"/>
<path d="" fill="#2F6F74" transform="translate(0,0)"/>
<path d="" fill="#2F6F74" transform="translate(0,0)"/>
<path d="" fill="#2F6F74" transform="translate(0,0)"/>
<path d="" fill="#2F6F74" transform="translate(0,0)"/>
<path d="" fill="#2F6F74" transform="translate(0,0)"/>
<path d="" fill="#2F6F74" transform="translate(0,0)"/>
<path d="" fill="#2F6F74" transform="translate(0,0)"/>
<path d="" fill="#2F6F74" transform="translate(0,0)"/>
<path d="" fill="#2F6F74" transform="translate(0,0)"/>
<path d="" fill="#2F6F74" transform="translate(0,0)"/>
<path d="" fill="#2F6F74" transform="translate(0,0)"/>
<path d="" fill="#2F6F74" transform="translate(0,0)"/>
<path d="" fill="#2F6F74" transform="translate(0,0)"/>
<path d="" fill="#2F6F74" transform="translate(0,0)"/>
<path d="" fill="#2F6F74" transform="translate(0,0)"/>
<path d="" fill="#2F6F74" transform="translate(0,0)"/>
<path d="" fill="#2F6F74" transform="translate(0,0)"/>
<path d="" fill="#2F6F74" transform="translate(0,0)"/>
<path d="" fill="#2F6F74" transform="translate(0,0)"/>
<path d="" fill="#2F6F74" transform="translate(0,0)"/>
<path d="" fill="#2F6F74" transform="translate(0,0)"/>
<path d="" fill="#2F6F74" transform="translate(0,0)"/>
<path d="" fill="#2F6F74" transform="translate(0,0)"/>
<path d="" fill="#2F6F74" transform="translate(0,0)"/>
<path d="" fill="#2F6F74" transform="translate(0,0)"/>
<path d="" fill="#2F6F74" transform="translate(0,0)"/>
<path d="" fill="#2F6F74" transform="translate(0,0)"/>
<path d="" fill="#2F6F74" transform="translate(0,0)"/>
<path d="" fill="#2F6F74" transform="translate(0,0)"/>
<path d="" fill="#2F6F74" transform="translate(0,0)"/>
<path d="" fill="#2F6F74" transform="translate(0,0)"/>
<path d="" fill="#2F6F74" transform="translate(0,0)"/>
<path d="" fill="#2F6F74" transform="translate(0,0)"/>
<path d="" fill="#2F6F74" transform="translate(0,0)"/>
<path d="" fill="#2F6F74" transform="translate(0,0)"/>
<path d="" fill="#2F6F74" transform="translate(0,0)"/>
<path d="" fill="#2F6F74" transform="translate(0,0)"/>
<path d="" fill="#2F6F74" transform="translate(0,0)"/>
<path d="" fill="#2F6F74" transform="translate(0,0)"/>
</svg>
